<?xml version="1.0" encoding="utf-8"?>
<!-- Generator: Adobe Illustrator 25.1.0, SVG Export Plug-In . SVG Version: 6.00 Build 0)  -->
<svg version="1.1" id="Layer_1" xmlns="http://www.w3.org/2000/svg" xmlns:xlink="http://www.w3.org/1999/xlink" x="0px" y="0px"
	 viewBox="0 0 100 100" style="enable-background:new 0 0 100 100;" xml:space="preserve">
<style type="text/css">
	.st0{fill:#16D478;}
</style>
<g>
	<path class="st0" d="M40.9,62.8c-1.3,0-2.3,1-2.3,2.3c0,1.3,1,2.3,2.3,2.3c1.3,0,2.3-1,2.3-2.3C43.3,63.9,42.2,62.8,40.9,62.8z"/>
	<path class="st0" d="M31,41.3c0-0.8-0.7-1.5-1.5-1.5h-3.5v2.9h3.5C30.4,42.8,31,42.2,31,41.3z"/>
	<path class="st0" d="M56.2,62.8c-1.3,0-2.3,1-2.3,2.3c0,1.3,1,2.3,2.3,2.3c1.3,0,2.3-1,2.3-2.3C58.5,63.9,57.5,62.8,56.2,62.8z"/>
	<path class="st0" d="M30.1,33.8c0-0.8-0.7-1.5-1.5-1.5h-2.6v2.9h2.6C29.5,35.2,30.1,34.6,30.1,33.8z"/>
	<path class="st0" d="M44.2,42.8c1.3,0,2.3-1,2.3-2.3c0-1.3-1-2.3-2.3-2.3c-1.3,0-2.3,1-2.3,2.3C41.9,41.8,43,42.8,44.2,42.8z"/>
	<path class="st0" d="M86,2H14C7.4,2,2,7.4,2,14v72c0,6.6,5.4,12,12,12h72c6.6,0,12-5.4,12-12V14C98,7.4,92.6,2,86,2z M52.9,28.6
		l4.7-1v19.9h-4.7V28.6z M44.2,33.3c4,0,7.2,3.2,7.2,7.2c0,4-3.2,7.2-7.2,7.2c-4,0-7.2-3.2-7.2-7.2C37,36.5,40.3,33.3,44.2,33.3z
		 M46.6,51.7c0,1.3-1,2.3-2.3,2.3c-1.3,0-2.3-1-2.3-2.3c0-1.3,1-2.3,2.3-2.3C45.5,49.4,46.6,50.4,46.6,51.7z M21.4,27.6h7.3
		c3.4,0,6.1,2.7,6.1,6.1c0,1.2-0.3,2.3-0.9,3.2c1.1,1.1,1.8,2.7,1.8,4.4c0,3.4-2.7,6.1-6.1,6.1h-8.2V27.6z M32.5,64.6h-6.4v7.6h-4.7
		V52.3h12.5V57h-7.8v2.9h6.4V64.6z M40.9,72.4c-4,0-7.2-3.2-7.2-7.2c0-4,3.2-7.2,7.2-7.2c4,0,7.2,3.2,7.2,7.2
		C48.1,69.1,44.9,72.4,40.9,72.4z M56.2,72.4c-4,0-7.2-3.2-7.2-7.2c0-4,3.2-7.2,7.2-7.2c4,0,7.2,3.2,7.2,7.2
		C63.4,69.1,60.2,72.4,56.2,72.4z M64,47.7c-0.1,0-0.1,0-0.2,0h0c0,0-0.1,0-0.1,0c-2.6-0.1-4.4-1.8-4.4-4.6V31l4.7-1v3.6h2.3v4.7H64
		v3.7c0,1.1,0.4,1.9,1.3,1.9c0.6,0,1-0.1,1-0.1v3.4C66.3,47.1,65.4,47.7,64,47.7L64,47.7z M78.6,72.2h-4.7V71
		c-0.8,0.7-1.8,1.2-3.1,1.2c-3.7,0-6.6-3.2-6.6-7.1c0-3.9,3-7.1,6.6-7.1c1.3,0,2.3,0.5,3.1,1.2v-6.8h4.7V72.2z"/>
	<path class="st0" d="M71.4,62.7c-1.3,0-2.4,1.1-2.4,2.4c0,1.3,1.1,2.4,2.4,2.4s2.4-1.1,2.4-2.4C73.7,63.8,72.7,62.7,71.4,62.7z"/>
</g>
</svg>
