<svg xmlns="http://www.w3.org/2000/svg" width="111.658" height="43.083" viewBox="0 0 111.658 43.083">
  <g id="Group_2" data-name="Group 2" transform="translate(-227.636 -81.849)">
    <path id="Path_2" data-name="Path 2" d="M227.636,81.853h6.6a9.283,9.283,0,0,1,3.7.661,7,7,0,0,1,2.5,1.769,6.6,6.6,0,0,1,1.394,2.541,10.583,10.583,0,0,1,.422,2.983v1.15a10.044,10.044,0,0,1-.2,2.164,5.217,5.217,0,0,1-.6,1.549,4.948,4.948,0,0,1-.974,1.171,8.4,8.4,0,0,1-1.328.949,4.877,4.877,0,0,1,2.347,2.233,8.792,8.792,0,0,1,.753,3.955v1.767a9.133,9.133,0,0,1-2.015,6.365q-2.016,2.209-6.442,2.209h-6.153Zm4.515,12.905h2.036q2.258,0,3.033-1.127A5.814,5.814,0,0,0,238,90.337a4.971,4.971,0,0,0-.864-3.182A3.85,3.85,0,0,0,234.01,86.1h-1.859Zm0,14.054H234.1a4.772,4.772,0,0,0,2.147-.4,2.759,2.759,0,0,0,1.174-1.1,4.191,4.191,0,0,0,.487-1.68c.057-.648.089-1.355.089-2.122a14.081,14.081,0,0,0-.134-2.077,3.44,3.44,0,0,0-.553-1.481,2.62,2.62,0,0,0-1.174-.906,5.356,5.356,0,0,0-1.992-.309h-1.992Z" fill="#313133"/>
    <path id="Path_3" data-name="Path 3" d="M250.657,91.711l4.516-4.758v26.367h-4.516Z" fill="#313133"/>
    <path id="Path_4" data-name="Path 4" d="M255.173,83.97l-4.516,4.759v-6.88h4.516Z" fill="#313133"/>
    <path id="Path_5" data-name="Path 5" d="M298.848,91.711l4.516-4.758v26.367h-4.516Z" fill="#313133"/>
    <path id="Path_6" data-name="Path 6" d="M303.363,83.97l-4.516,4.759v-6.88h4.516Z" fill="#313133"/>
    <path id="Path_7" data-name="Path 7" d="M334.778,91.711l4.516-4.758v26.367h-4.516Z" fill="#313133"/>
    <path id="Path_8" data-name="Path 8" d="M339.294,83.97l-4.516,4.759v-6.88h4.516Z" fill="#313133"/>
    <path id="Path_9" data-name="Path 9" d="M263.585,81.853h7.26q7.971,0,7.97,9.236a11.65,11.65,0,0,1-.864,4.707,6.661,6.661,0,0,1-3.033,3.159l4.872,14.364h-4.783L270.8,99.884h-2.7v13.435h-4.516ZM268.1,95.907h2.567a4.564,4.564,0,0,0,1.9-.331,2.442,2.442,0,0,0,1.085-.952,4.031,4.031,0,0,0,.509-1.525,16.619,16.619,0,0,0,0-4.2,3.766,3.766,0,0,0-.554-1.547,2.52,2.52,0,0,0-1.173-.951,5.358,5.358,0,0,0-1.992-.308H268.1Z" fill="#313133"/>
    <path id="Path_10" data-name="Path 10" d="M311.8,81.853h4.516V96.215h.089L323,81.853h4.516l-6.155,12.6,7.306,18.871h-4.782l-5.136-13.964-2.435,4.551v9.413H311.8Z" fill="#313133"/>
    <path id="Path_11" data-name="Path 11" d="M281.445,96.056a1.246,1.246,0,0,0,1.384-1.006h.848v8h-1.26v-6.1h-.972Z" fill="#313133"/>
    <path id="Path_12" data-name="Path 12" d="M292.318,96.1c-.4,0-.653.218-.653.789v.857h-1.19V96.97c0-1.28.641-2.011,1.877-2.011a1.753,1.753,0,0,1,1.879,2.011c0,2.514-2.508,3.451-2.508,4.766a.892.892,0,0,0,.011.17h2.382v1.142h-3.641v-.982c0-2.354,2.5-2.743,2.5-5.051,0-.72-.252-.914-.653-.914" fill="#313133"/>
    <path id="Path_13" data-name="Path 13" d="M289.306,98.236l-3.353,3.347-.516-.515,3.353-3.347Z" fill="#313133"/>
    <path id="Path_14" data-name="Path 14" d="M260.438,124.9v-3.984h1.349a1.994,1.994,0,0,1,0,3.984Zm1.349-3.636h-.961v3.289h.961a1.65,1.65,0,0,0,0-3.289" fill="#313133"/>
    <path id="Path_15" data-name="Path 15" d="M265.349,122.9a1.877,1.877,0,1,1,1.871,2.02,1.966,1.966,0,0,1-1.871-2.02m1.871,1.668a1.676,1.676,0,1,0-1.479-1.668,1.585,1.585,0,0,0,1.479,1.668m-.578-4.805h.326v.527h-.326Zm.837,0h.326v.527h-.326Z" fill="#313133"/>
    <path id="Path_16" data-name="Path 16" d="M271.368,121.643V124.9h-.389v-3.985h.3l2.643,3.317v-3.311h.388V124.9h-.337Z" fill="#313133"/>
    <path id="Path_17" data-name="Path 17" d="M279.135,124.55v.348h-2.682v-3.985h2.631v.348h-2.243V122.7H278.8v.331h-1.957v1.522Z" fill="#313133"/>
    <path id="Path_18" data-name="Path 18" d="M281.027,124.9v-3.985h1.681a1.244,1.244,0,0,1,1.187,1.251,1.179,1.179,0,0,1-.895,1.2l.984,1.538h-.444l-.944-1.471h-1.181V124.9Zm.388-1.819h1.309a.845.845,0,0,0,.777-.915.878.878,0,0,0-.81-.9h-1.276Z" fill="#313133"/>
    <path id="Path_19" data-name="Path 19" d="M290.775,121.659a1.46,1.46,0,0,0-1.091-.427c-.709,0-1.018.287-1.018.742,0,.471.343.594,1.113.763.849.18,1.378.4,1.378,1.117,0,.735-.6,1.078-1.433,1.078a2.37,2.37,0,0,1-1.6-.579l.19-.319a2.008,2.008,0,0,0,1.418.549c.636,0,1.017-.23,1.017-.69,0-.488-.41-.646-1.208-.825-.833-.191-1.271-.392-1.271-1.038,0-.741.585-1.145,1.423-1.145a1.853,1.853,0,0,1,1.27.46Z" fill="#313133"/>
    <path id="Path_20" data-name="Path 20" d="M296.146,120.913V124.9h-.394v-1.863h-2.367V124.9H293v-3.985h.388v1.774h2.367v-1.774Z" fill="#313133"/>
    <path id="Path_21" data-name="Path 21" d="M298.027,122.9a1.878,1.878,0,1,1,1.873,2.021,1.967,1.967,0,0,1-1.873-2.021m1.873,1.667a1.676,1.676,0,1,0-1.479-1.667,1.584,1.584,0,0,0,1.479,1.667" fill="#313133"/>
    <path id="Path_22" data-name="Path 22" d="M303.658,124.9v-3.985h1.653a1.242,1.242,0,0,1,1.181,1.251,1.2,1.2,0,0,1-1.147,1.263h-1.3V124.9Zm.389-1.819h1.276a.839.839,0,0,0,.775-.915.866.866,0,0,0-.809-.9h-1.242Z" fill="#313133"/>
  </g>
</svg>
