<?xml version="1.0" encoding="utf-8"?>
<!-- Generator: Adobe Illustrator 25.1.0, SVG Export Plug-In . SVG Version: 6.00 Build 0)  -->
<svg version="1.1" id="Layer_1" xmlns="http://www.w3.org/2000/svg" xmlns:xlink="http://www.w3.org/1999/xlink" x="0px" y="0px"
	 viewBox="0 0 100 100" style="enable-background:new 0 0 100 100;" xml:space="preserve">
<style type="text/css">
	.st0{fill:#4DB2E1;}
</style>
<path class="st0" d="M86,2H14C7.4,2,2,7.4,2,14v72c0,6.6,5.4,12,12,12h72c6.6,0,12-5.4,12-12V14C98,7.4,92.6,2,86,2z M39.7,44.7
	c-1.1,7.6-4.2,18.5-8.7,18.9c-2.9,0.2-4.3-1.5-4.7-3.6c-0.4-2-0.7-5.1-0.9-7.8c-2,5.6-4.4,10.5-6.2,13.8c-0.5,0.9-1.1,0.9-1.6,0.9
	c-1,0-2.3-0.5-3-1.1c-0.3-0.3-0.5-0.8-0.6-1.3c-1-7.1-1.1-16.4,0.1-22.5c0.1-0.7,0.4-1.5,1.1-1.9c1.3-0.9,3.1-1.3,5-1.3
	c0.5,0,0.6,0.3,0.5,0.7c-1.4,5-1.9,8.7-2.3,13.2c-0.5,4.6-0.3,7.9-0.3,10.7c2.6-4.9,5.1-12,7.1-18.4c0.2-0.5,0.5-0.8,1-0.9
	c0.9-0.2,2-0.3,3-0.3c0.5,0,0.7,0.3,0.7,0.9c-0.1,5,0.2,9.2,0.7,14.2c0.1,1.4,0.4,2.2,1.1,2.1c1.1-0.1,3.8-7.1,3.8-15.7
	c0-5.4-0.4-8.2-1.1-11.6c-0.1-0.4,0.1-0.6,0.3-0.6c1.3-0.1,3,0.5,4,1.1c0.5,0.3,0.9,0.8,1,1.7C40.3,37.7,40.2,41.1,39.7,44.7z
	 M85.6,40.6c-4.2,1-8.7,2-13,2.9c-0.7,3.3-1.4,7.2-1.4,10.9c0,0.9,0.1,1.9,0.9,1.9c2,0,7.3-6.2,10.9-11.2c0.3-0.5,0.6-0.5,0.7-0.4
	c0.3,0.3-0.3,3.6-1.5,5.3c-3,4-7,7.7-9.9,8c-2.2,0.2-5.4-1.4-5.2-4.8c0-0.1,0-0.2,0-0.3c-1.9,4-5.2,6.4-6.7,6.4
	c-1.2,0-2.4-0.4-3.5-1.1c-0.7-0.4-0.8-1.1-0.9-2c-0.1-3,0.1-6.8,0.4-10.5c-1.3,1-2.6,1.7-3.8,2c0.1,4.2-1.3,9.5-3.6,11.8
	c-0.9,0.9-1.6,1-2.7,0.9c-1.1-0.1-2.5-0.5-3.2-1.1c-0.7-0.4-1.1-1.2-1.3-2.5c-0.6-3.4-0.3-9,1.5-12.7c0.7-1.1,1.2-1.5,2.2-1.6
	c0.7-0.1,1.8,0,2.9,0.1c-1.8,3.1-2.3,6.2-2.4,9.1c-0.1,2.9,0.4,4.8,1.1,4.8c1.3,0,3-4.6,3.3-10.2c-1.3-0.1-2.1-1.8-2-3.7
	c0.8,0.1,1.6,0.2,2.1,0.4c1,0.3,1.4,0.9,1.8,2.7c1.4-0.5,2.9-1.4,4.3-2.5c0.4-3.2,0.9-6.3,1.5-9.1c0.1-0.3,0.5-0.5,0.8-0.5
	c1.1,0,2.8,0.4,3.6,0.9c0.5,0.3,0.6,0.6,0.5,1.1c-0.3,2.5-0.7,4-1.7,6.7c-0.7,4-1.3,9.2-1.2,12.9c0,1.6,0.3,1.9,0.7,1.9
	c1,0,4.1-4,6.5-8.2c0.2-1.5,0.5-3.2,0.7-4.8c-0.7,0.1-1.3,0.3-2,0.3c-0.7,0.1-0.9-0.1-0.9-0.6c-0.1-0.7,0.1-1.8,0.3-2.5
	c0.2-0.5,0.5-0.7,1-0.7c0.7-0.1,1.5-0.1,2.4-0.2c0.3-1.6,0.7-3,1.1-4.2c0.1-0.4,0.4-0.5,0.7-0.5c1-0.1,2.2,0.2,2.9,0.5
	c0.7,0.3,0.7,0.5,0.5,1.1c-0.2,0.8-0.5,1.8-0.8,2.9c4.6-0.3,9.5-0.7,12.6-0.7c0.3,0,0.6,0.1,0.5,0.2C86.6,40,86.2,40.4,85.6,40.6z"
	/>
</svg>
